<?xml version="1.0" encoding="UTF-8"?>
<svg xmlns="http://www.w3.org/2000/svg" width="1200" height="630" viewBox="0 0 1200 630" font-family="ui-monospace, SFMono-Regular, Menlo, monospace">
  <defs>
    <radialGradient id="glow" cx="28%" cy="42%" r="75%">
      <stop offset="0%" stop-color="#0e1726"/>
      <stop offset="55%" stop-color="#0a0f18"/>
      <stop offset="100%" stop-color="#070b12"/>
    </radialGradient>
    <linearGradient id="amber" x1="0" y1="0" x2="1" y2="0">
      <stop offset="0%" stop-color="#ffd08a"/>
      <stop offset="100%" stop-color="#ffb454"/>
    </linearGradient>
  </defs>

  <rect width="1200" height="630" fill="url(#glow)"/>

  <!-- star field -->
  <g fill="#c9d4e3">
    <circle cx="90" cy="70" r="1.4" opacity="0.5"/>
    <circle cx="240" cy="120" r="1" opacity="0.35"/>
    <circle cx="380" cy="48" r="1.2" opacity="0.45"/>
    <circle cx="520" cy="150" r="1" opacity="0.3"/>
    <circle cx="700" cy="80" r="1.5" opacity="0.5"/>
    <circle cx="860" cy="56" r="1" opacity="0.35"/>
    <circle cx="980" cy="140" r="1.3" opacity="0.45"/>
    <circle cx="1110" cy="70" r="1" opacity="0.3"/>
    <circle cx="1050" cy="240" r="1.4" opacity="0.45"/>
    <circle cx="1140" cy="360" r="1" opacity="0.3"/>
    <circle cx="60" cy="300" r="1.2" opacity="0.4"/>
    <circle cx="150" cy="470" r="1" opacity="0.3"/>
    <circle cx="70" cy="560" r="1.4" opacity="0.45"/>
    <circle cx="300" cy="560" r="1" opacity="0.3"/>
    <circle cx="470" cy="590" r="1.2" opacity="0.4"/>
    <circle cx="690" cy="560" r="1" opacity="0.3"/>
    <circle cx="900" cy="585" r="1.3" opacity="0.4"/>
    <circle cx="1080" cy="540" r="1" opacity="0.3"/>
    <circle cx="1010" cy="430" r="1.1" opacity="0.35"/>
    <circle cx="560" cy="300" r="1" opacity="0.25"/>
  </g>

  <!-- constellation graph (the cluster motif) -->
  <g stroke="#59c2ff" stroke-width="1.1" opacity="0.5">
    <line x1="940" y1="200" x2="1040" y2="285"/>
    <line x1="1040" y1="285" x2="980" y2="400"/>
    <line x1="980" y1="400" x2="870" y2="360"/>
    <line x1="870" y1="360" x2="940" y2="200"/>
    <line x1="1040" y1="285" x2="1120" y2="200"/>
    <line x1="870" y1="360" x2="800" y2="470"/>
  </g>
  <g fill="#59c2ff">
    <circle cx="940" cy="200" r="5"/>
    <circle cx="1040" cy="285" r="6"/>
    <circle cx="980" cy="400" r="5"/>
    <circle cx="870" cy="360" r="5"/>
    <circle cx="1120" cy="200" r="4"/>
    <circle cx="800" cy="470" r="4"/>
  </g>

  <!-- left accent bar -->
  <rect x="0" y="0" width="6" height="630" fill="url(#amber)" opacity="0.85"/>

  <!-- brand -->
  <circle cx="92" cy="74" r="7" fill="#ffb454"/>
  <text x="112" y="81" font-size="26" fill="#c9d4e3" letter-spacing="1">R.S</text>

  <!-- boot line -->
  <text x="88" y="252" font-size="24" fill="#7fd962">$ MASS::init(hosts=24) ......... cluster online</text>

  <!-- name -->
  <text x="84" y="350" font-size="82" font-weight="700"
        font-family="Inter, -apple-system, Helvetica, Arial, sans-serif">
    <tspan fill="#f3f6fb">Rishabh</tspan><tspan fill="url(#amber)" dx="22">Pratap Singh</tspan>
  </text>

  <!-- tagline -->
  <text x="88" y="418" font-size="31" fill="#c9d4e3"
        font-family="Inter, -apple-system, Helvetica, Arial, sans-serif">
    Distributed runtimes, HPC, and backend systems.
  </text>

  <!-- subline -->
  <text x="88" y="470" font-size="22" fill="#8494ab">
    MS Computer Science / University of Washington / Research Assistant, MASS C++
  </text>

  <!-- url -->
  <text x="88" y="556" font-size="24" fill="#59c2ff">rishprsi.github.io</text>
</svg>
